<svg id="levelup" xmlns="http://www.w3.org/2000/svg" viewBox="0 0 205.73 50.95"><defs><style>.cls-1{fill:#fff;}.cls-2{fill:#f43737;}.cls-3{fill:#fff;}</style></defs><title>Artboard 1</title><g id="horizontal_clean" data-name="horizontal clean"><path class="cls-1" d="M61.15,0V38.78H56V0Zm28,28.8h-16a6.79,6.79,0,0,0,1.79,4.39A5.45,5.45,0,0,0,79,34.81a5.28,5.28,0,0,0,3.19-.91A13.08,13.08,0,0,0,85,30.5l4.36,2.43a17.12,17.12,0,0,1-2.13,3,11.3,11.3,0,0,1-2.41,2A9.74,9.74,0,0,1,82,39.06a13.7,13.7,0,0,1-3.23.37,10.51,10.51,0,0,1-8-3.22,12,12,0,0,1-3-8.58,12.38,12.38,0,0,1,2.94-8.58,10.13,10.13,0,0,1,7.85-3.24A10,10,0,0,1,86.3,19q2.85,3.12,2.85,8.65Zm-5.3-4.22a5,5,0,0,0-5.21-4.13,5.39,5.39,0,0,0-1.77.29,5,5,0,0,0-1.5.82,5.16,5.16,0,0,0-1.16,1.3,6.21,6.21,0,0,0-.74,1.72ZM97.6,16.43,103.39,29l5.76-12.55H115L103.34,40.32,91.82,16.43Zm41.53,12.39h-16a6.79,6.79,0,0,0,1.79,4.39,5.45,5.45,0,0,0,4.06,1.6,5.28,5.28,0,0,0,3.19-.91A13.08,13.08,0,0,0,135,30.5l4.36,2.43a17.12,17.12,0,0,1-2.13,3,11.3,11.3,0,0,1-2.41,2A9.74,9.74,0,0,1,132,39.06a13.7,13.7,0,0,1-3.23.37,10.51,10.51,0,0,1-8-3.22,12,12,0,0,1-3-8.58,12.38,12.38,0,0,1,2.94-8.58,10.13,10.13,0,0,1,7.85-3.24A10,10,0,0,1,136.3,19q2.85,3.12,2.85,8.65Zm-5.3-4.22a5,5,0,0,0-5.21-4.13,5.39,5.39,0,0,0-1.77.29,5,5,0,0,0-1.5.82,5.16,5.16,0,0,0-1.16,1.3,6.21,6.21,0,0,0-.74,1.72ZM150.86,0V38.78h-5.17V0Z"/><path class="cls-2" d="M162.54,16.43V29.26q0,5.55,4.38,5.55t4.39-5.55V16.43h5.16v13a14.47,14.47,0,0,1-.66,4.63,7.85,7.85,0,0,1-2.23,3.14,10.82,10.82,0,0,1-13.29,0A7.87,7.87,0,0,1,158,34a12.72,12.72,0,0,1-.64-4.63V16.43ZM188.18,51H183V16.43h5.17v2.43a9.79,9.79,0,0,1,14.52.35,12.27,12.27,0,0,1,3,8.51,12.1,12.1,0,0,1-3,8.38,9.79,9.79,0,0,1-14.55.18Zm12.28-23.2a7.75,7.75,0,0,0-1.75-5.24,5.64,5.64,0,0,0-4.45-2,5.89,5.89,0,0,0-4.61,2,7.49,7.49,0,0,0-1.77,5.19,7.63,7.63,0,0,0,1.77,5.19,5.79,5.79,0,0,0,4.59,2,5.6,5.6,0,0,0,4.43-2A7.31,7.31,0,0,0,200.46,27.75Z"/><polygon class="cls-2" points="20.39 0 26.69 12.77 40.78 14.81 30.59 24.75 32.99 38.78 20.39 32.16 7.79 38.78 10.2 24.75 0 14.81 14.09 12.77 20.39 0"/><polygon class="cls-3" points="20.39 14.41 22.4 18.47 26.88 19.13 23.64 22.29 24.4 26.76 20.39 24.65 16.38 26.76 17.14 22.29 13.9 19.13 18.38 18.47 20.39 14.41"/></g></svg>